<?xml version="1.0" encoding="utf-8"?>
<!-- Generator: Adobe Illustrator 16.0.0, SVG Export Plug-In . SVG Version: 6.00 Build 0)  -->
<!DOCTYPE svg PUBLIC "-//W3C//DTD SVG 1.1//EN" "http://www.w3.org/Graphics/SVG/1.1/DTD/svg11.dtd">
<svg version="1.1" id="Layer_1" xmlns="http://www.w3.org/2000/svg" xmlns:xlink="http://www.w3.org/1999/xlink" x="0px" y="0px"
	 width="222.388px" height="180px" viewBox="0 0 222.388 180" enable-background="new 0 0 222.388 180" xml:space="preserve">
<text transform="translate(20,140)" fill="#1865A3" font-family="'PFFreeScript-Regular'" font-size="13.4408">Σύλλογος Οδοντιάτρων Χαλκίδας</text>
<path fill="#1865A3" d="M133.24,39.361c0,0-10.49-1.392-20.105,7.35c0,0-7.518,7.252-15.91,6.203c0,0,6.203,5.245,17.741-1.133
	c0,0,0.944-0.581,2.392-1.266c0,0,0,0,0.007-0.007c0.021-0.014,0.042-0.021,0.07-0.035c4.994-2.748,8.931-3.518,12.029-3.056
	c0.175,0.021,0.35,0.056,0.531,0.091c0.182,0.035,0.364,0.077,0.552,0.125c0.175,0.042,0.35,0.091,0.518,0.147
	c13.399,3.93,9.868,22.441,9.868,22.441s-1.399,22.377-16.525,42.401c0,0,17.308-12.33,23.693-42.576
	C148.101,70.047,154.129,40.585,133.24,39.361z"/>
<path fill="#1865A3" d="M93.029,86.481c0,0,19.057-15.735,22.203,14.075C115.232,100.557,117.156,61.83,93.029,86.481z"/>
<path fill="#BE1E2D" d="M104.142,51.264c1.507-0.252,2.83-0.981,3.746-1.605l0.157,0.075c0,0-0.036-0.044-0.096-0.115
	c0.029-0.02,0.067-0.042,0.096-0.062c-0.269-0.271-0.655-0.649-1.132-1.096c-2.66-2.837-9.659-9.412-17.071-9.079
	c-0.114-0.003-0.229-0.021-0.343-0.021c-1.119,0-2.217,0.167-3.287,0.531c0,0-13.204,3.755-9.532,30.679
	c0,0,1.084,7.139,6.357,20.049c0,0-6.063-37.302,4.196-43.595c0,0,6.734-4.301,16.266,3.636L104.142,51.264z"/>
</svg>
